<?xml version="1.0" encoding="utf-8"?>
<svg viewBox="0 0 16 16" xmlns="http://www.w3.org/2000/svg" xmlns:bx="https://boxy-svg.com">
  <defs>
    <bx:grid x="0" y="0" width="1" height="1"/>
  </defs>
  <path style="stroke-width: 0.1px; fill: rgb(79, 101, 115);" d="M 7.005 3.964 L 7.987 1.799 L 9.581 1.997 L 10.08 4.303 C 10.08 4.303 10.987 5.006 10.987 5.001 C 10.987 4.995 13.358 4.901 13.358 4.901 L 14 6.391 L 12.12 8 L 11.982 9.131 L 13.352 11.093 L 12.377 12.389 L 10 11.763 L 8.927 12.2 L 7.984 14.201 L 6.393 13.985 L 5.871 11.686 L 4.959 10.98 L 2.618 11.111 L 2 9.581 L 3.851 8.069 L 3.995 6.938 L 2.633 4.879 L 3.614 3.593 L 5.915 4.41 L 7.005 3.964 Z M 8 10 C 9 10 10 9.231 10 8 C 10 6.769 9.202 6 8 6 C 6.798 6 6 6.827 6 8 C 6 9.173 7 10 8 10 Z"/>
</svg>