<?xml version="1.0" encoding="utf-8"?>
<svg viewBox="0 0 16 16" xmlns="http://www.w3.org/2000/svg" xmlns:bx="https://boxy-svg.com">
  <defs>
    <bx:grid x="0" y="0" width="1" height="1"/>
  </defs>
  <path style="stroke-width: 0.1px; fill: rgb(215, 167, 48);" d="M 15.646 13.816 C 14.024 13.068 13.097 12.599 12.934 11.816 C 12.771 11.033 12.751 6.831 13 5.876 C 13.181 5.182 13.745 3.233 15.437 2.439 C 15.44 2.442 12.741 2.077 10.483 5.002 C 10.483 5.002 10.174 5.009 9.548 5.174 C 9.548 5.174 9.999 5.619 10 6.566 C 10 7.513 10.002 8.938 10 9.276 C 9.997 9.614 10.022 10.567 9 10.954 C 7.976 11.341 8 9.596 8 9.596 C 8 9.596 8 6.802 8 6.344 C 8 5.354 8.232 4.536 8.681 3.854 C 8.104 4 7.375 4.345 6.709 5 C 5.926 4.706 5.802 3.503 6.202 2.742 C 6.655 1.88 7 1.351 8 0.505 C 5.764 0.492 0.214 3.258 0 8 C 0.246 7.76 1 5 3.52 5 C 4.379 5 5 5 5 7.142 C 5 7.142 4.144 6.793 3.185 7.2 C 3.905 7.398 5.112 8.17 5 9.081 C 4.808 9.026 4.084 8.948 3.523 9.134 C 4.384 9.419 5 9.773 5 11 C 5 12.227 4.318 12.608 4 12.831 C 5 13 6.581 13.493 7.482 14 C 8.044 13.486 9.018 12.313 9.64 12.481 C 10.032 12.597 10.063 12.813 10 13 C 10.846 13.859 13.163 14.1 15.646 13.816 Z"/>
</svg>