<?xml version="1.0" encoding="utf-8"?>
<svg viewBox="0 0 96 96" xmlns="http://www.w3.org/2000/svg" xmlns:bx="https://boxy-svg.com">
  <defs>
    <bx:grid x="0" y="0" width="6" height="6"/>
    <linearGradient id="color-1" gradientUnits="userSpaceOnUse" gradientTransform="matrix(2.867667, 0, 0, 1.396977, -26.143829, -47.117146)" bx:pinned="true">
      <stop style="stop-color: rgb(255, 97, 38);"/>
    </linearGradient>
    <linearGradient id="color-0" gradientUnits="userSpaceOnUse" bx:pinned="true">
      <stop style="stop-color: rgb(41, 49, 60)"/>
    </linearGradient>
  </defs>
  <ellipse style="fill: url('#color-0');" cx="48" cy="48" rx="48" ry="48"/>
  <path d="M 24 40.621 C 24.153 43.007 23.865 49.273 23.865 54.124 C 23.865 55.741 25.593 54.908 27.729 54.119 C 29.865 53.331 29.865 52.585 29.865 50.968 C 29.865 48.542 29.865 42.756 29.865 42.756 C 29.99 41.897 28.54 41.782 27.092 42.276 C 29.539 39.093 33.924 35.702 39.556 36.456 C 35.865 38.131 35.865 40.252 35.865 40.252 L 35.865 54.378 L 37.272 57.339 C 33.488 56.143 30.786 57.856 30.232 58.818 C 29.753 59.648 30.629 60.946 30.629 60.946 C 23.289 58.364 15.968 57.636 15.968 57.636 C 17.599 56.862 17.865 54.805 17.865 53.996 C 17.865 53.188 18 42.35 18 42.35 C 17.007 39.858 12.688 42.544 12 42.867 C 14.447 38.876 21.619 34.511 27.812 36.311 C 24.76 37.021 23.9 39.061 24 40.621 Z M 39.893 58.217 C 39.893 58.217 41.865 57.676 41.865 56.53 C 41.865 55.603 42 44.561 42 43.59 C 42 42.648 42 41.652 39.552 42.408 C 42.609 38.574 47.175 35.712 54.523 35.894 C 54.523 35.894 52.704 37.519 54.541 39.08 C 56.378 40.641 58.329 42.405 58.773 44.982 C 52.627 40.238 48.23 38.062 48 44.688 C 48.08 46.49 47.865 55.141 47.865 55.141 C 50.315 53 55.282 52.475 59.149 54.772 C 53.813 55.179 50.814 58.047 50.26 59.759 C 48.926 59.513 48.724 60.226 48.734 61.218 L 39.893 58.217 Z M 55.585 59.18 C 57.572 58.373 58.849 58.129 59.496 56.821 C 60.723 57.301 62.88 55.149 61.556 53.456 C 62.714 52.457 65.545 46.912 65.545 46.912 C 65.545 46.912 63.11 43.029 60.772 39.995 C 59.498 38.524 57.986 37.906 56.419 37.25 C 58.386 36.338 61.306 36.282 61.306 36.282 C 61.306 36.282 62.369 36.157 63.47 36 C 63.436 36.985 63.046 36.942 63.704 37.944 C 64.127 38.588 67.487 43.968 67.487 43.968 C 67.487 43.968 70.609 38.635 71.047 37.818 C 71.256 37.429 71.495 37.022 70.781 36.263 C 72.621 35.487 81.18 37.266 81.798 39.06 C 80.836 38.669 75.613 38.177 75.577 41.131 C 74.711 42 72.213 46.215 70.852 48.484 C 71.587 49.417 75.591 54.405 76.335 55.146 C 78.213 57.019 81.478 56.297 84 54.763 C 82.804 57.02 76.514 63.553 70.108 58.994 C 72 58.995 72.918 58.096 71.4 55.959 C 70.323 54.442 68.863 52.201 68.863 52.201 C 68.863 52.201 67.02 55.36 65.278 58.309 C 65.052 58.691 64.696 60.117 64.537 60.932 C 62.095 60.299 59.284 59.817 55.585 59.18 Z" style="paint-order: fill; fill-rule: nonzero; stroke-miterlimit: 13.37; transform-box: fill-box; transform-origin: 52.576% 54.3817%; fill: url('#color-1');"/>
</svg>